<?xml version="1.0" encoding="UTF-8"?>
<svg id="Calque_2" data-name="Calque 2" xmlns="http://www.w3.org/2000/svg" viewBox="0 0 149.62 20.83">
  <defs>
    <style>
      .cls-1 {
        fill: #f7f7f9;
        stroke-width: 0px;
      }
    </style>
  </defs>
  <g id="Calque_1-2" data-name="Calque 1">
    <g>
      <g>
        <path class="cls-1" d="M1.9,17.05h2.12c1.13,0,1.93-.65,1.93-1.7s-.72-1.68-1.71-1.68H1.9v3.38ZM3.61,12.32c.33,0,.66-.02.96-.05.58-.18.96-.68.96-1.42,0-1.01-.71-1.63-1.82-1.63h-1.81v3.1h1.71ZM7.98,15.45c0,1.97-1.63,3.13-4.04,3.13H0V7.68h3.58c2.31,0,3.96,1.08,3.96,3.03,0,.98-.6,1.79-1.43,2.15,1.05.35,1.87,1.38,1.87,2.59"/>
        <path class="cls-1" d="M17.99,17.02c2.25,0,3.86-1.68,3.86-3.89s-1.62-3.89-3.86-3.89-3.88,1.69-3.88,3.89,1.63,3.89,3.88,3.89M17.99,7.49c3.32,0,5.86,2.47,5.86,5.65s-2.5,5.65-5.86,5.65-5.86-2.47-5.86-5.65,2.51-5.65,5.86-5.65"/>
        <path class="cls-1" d="M30.57,9.29v7.69h1.49c2.53,0,4.15-1.59,4.15-3.85s-1.62-3.84-4.19-3.84h-1.45ZM28.59,18.58V7.68h3.44c3.74,0,6.17,2.23,6.17,5.45s-2.4,5.45-6.13,5.45h-3.49Z"/>
        <polygon class="cls-1" points="43.28 7.68 46.14 12.5 49.01 7.68 51.23 7.68 47.13 14.31 47.13 18.58 45.15 18.58 45.15 14.31 41.06 7.68 43.28 7.68"/>
        <polygon class="cls-1" points="59.25 9.29 59.25 18.58 57.27 18.58 57.27 9.29 53.98 9.29 53.98 7.68 62.55 7.68 62.55 9.29 59.25 9.29"/>
        <rect class="cls-1" x="66.89" y="7.68" width="1.98" height="10.9"/>
        <polygon class="cls-1" points="78.48 9.29 78.48 18.58 76.5 18.58 76.5 9.29 73.2 9.29 73.2 7.68 81.78 7.68 81.78 9.29 78.48 9.29"/>
        <polygon class="cls-1" points="86.11 18.58 86.11 7.68 93.23 7.68 93.23 9.29 88.09 9.29 88.09 12.29 92.45 12.29 92.45 13.85 88.09 13.85 88.09 16.98 93.47 16.98 93.47 18.58 86.11 18.58"/>
      </g>
      <g>
        <path class="cls-1" d="M137.41,11.29l-.04-.04c-.45-.34-1.01-.38-1.69-.07-1.2.53-2.78,1.84-4.32,3.27l6.24-9.9c.11-.19-.08-.6-.38-.9-.34-.3-.68-.41-.79-.23l-6.37,10.12c-.92.25-1.85.37-2.5.33-.49-.04-.38-.9-.71-1.28-.75-.94-2.56-.34-3.87.3l1.39-2.22c.11-.19-.04-.6-.38-.9-.3-.3-.68-.41-.79-.23l-3.05,4.92c-.97.96-2.21,1.87-3.3,2.4-2.82,1.35,0-2.63.49-3.23.19-.15.26-.26.26-.26.15-.15,0-.56-.3-.86-.3-.34-.68-.45-.83-.3l-.11.15c-2.03,3.42-4.92,5.26-5.37,4.89-.26-.23-.04-2.48,2.82-5.75.11-.19,0-.56-.3-.9-.3-.3-.68-.45-.83-.3-.72.77-1.57,1.84-2.24,2.95-1.32,1.06-7.45,5.78-8.05,4.64-.41-.75.83-2.89,3.12-6.62.08,0,.15-.07.15-.23v-.04c.75-1.2,1.54-2.44,2.33-3.65h8.24c.26,0,.3-.3.08-.68-.19-.34-.6-.64-.86-.64h-6.58c2.93-4.4,3.66-4.83,3.66-4.87.11-.15-.04-.56-.34-.86-.3-.34-.68-.41-.79-.26-.04.04-1.18,1.07-4.33,6h-8.7c-.26,0-.3.3-.08.64.19.38.6.68.86.68,0,0,4.74.3,5.55,2.48,0,0-.26.41-.23.41-2.41,3.98-4.13,7.59-3.57,8.64,1.29,2.36,5.84-1.03,8.48-3.31-1.09,3.53,1.74,3.77,5.13.86.23,1.62,1.88,1.92,3.19,1.28.24-.11.48-.26.72-.43l-.57.92c-.11.19.04.6.38.9.3.3.68.41.79.23.19-.34,2.14-3.65,2.22-3.68,0,0,3.35-2.97,3.91-2.29.83.98,1.13,1.24,2.1,1.32.5.05,1.41-.09,2.29-.28l-3.19,5.16c-.11.19.04.6.38.9.3.3.64.41.75.26.04,0,1.39-1.58,3.19-3.38.38,1.24,1.28,2.52,3.57,1.95,1.65-.38,3.19-2.82,3.8-4.77.15-.56.26-1.09.23-1.54,0-.68-.26-1.28-.83-1.73ZM101.52,7.2l4.7.19c-.38.6-.75,1.2-1.13,1.8-.6-.79-2.44-1.54-3.57-1.99ZM136.77,13.55c-.53,1.84-1.99,4.13-3.46,4.51-1.58.38-1.69-1.24-1.69-1.65,1.77-1.69,3.68-3.34,5.07-3.98.11-.04.23-.11.34-.15-.04.38-.11.83-.26,1.28ZM137.18,12.23s.08-.04.08-.04v.04s0,0-.08,0Z"/>
        <path class="cls-1" d="M149.44,13.55c-.3-.34-.49-.19-.68-.07-1.32.75-2.56.6-3.38.45.08-.56.08-1.13,0-1.62-.08-.49-.19-.94-.41-1.35-.26-.56-.68-1.01-1.17-1.28-.3-.15-.6-.23-.94-.19-.45.07-.68.45-.75.98-.04.49.08,1.17.38,1.84.3.68.79,1.35,1.47,1.92-.15.53-.34,1.05-.6,1.54-.45.86-.94,1.54-1.47,1.99-.38.38-.79.6-1.13.71-.3.08-.53.08-.71,0-.19-.38-.04-1.28.26-2.26.41-1.17,1.05-2.33,1.84-3.04.08-.08.19-.15.3-.23.15-.15.08-.53-.23-.86-.3-.34-.68-.49-.83-.38-.11.08-.23.19-.34.26-.83.75-1.54,1.99-1.95,3.23-.41,1.32-.45,2.71.15,3.57.08.08.15.15.23.23.23.26.49.45.75.6.49.26.98.3,1.47.15.41-.11.83-.41,1.28-.79.56-.49,1.09-1.24,1.54-2.1.34-.56.56-1.24.71-1.88,1.17.41,2.48.26,4.25-.71.19-.11.23-.38-.04-.71ZM144.14,13.32c-.26-.23-.45-.49-.56-.79-.19-.41-.26-.83-.23-1.17.04-.34.15-.56.38-.56.11-.04.23-.04.26,0h-.04c.08.19.15.49.19.83.08.49.08,1.09,0,1.69Z"/>
      </g>
    </g>
  </g>
</svg>