<?xml version="1.0" encoding="UTF-8"?>
<svg id="Calque_2" data-name="Calque 2" xmlns="http://www.w3.org/2000/svg" viewBox="0 0 131.39 17.6">
  <defs>
    <style>
      .cls-1 {
        fill: #1b242d;
        stroke-width: 0px;
      }
    </style>
  </defs>
  <g id="Calque_1-2" data-name="Calque 1">
    <g>
      <polygon class="cls-1" points="125.4 8.71 131.25 .31 127.9 .31 123.79 6.42 119.69 .31 116.34 .31 122.19 8.71 116.2 17.3 119.55 17.3 123.79 11.02 128.02 17.3 131.39 17.3 125.4 8.71"/>
      <g>
        <polygon class="cls-1" points="10.98 2.79 10.98 0 2.84 0 0 0 0 2.79 2.86 2.79 10.98 2.79"/>
        <g>
          <path class="cls-1" d="M26.76,5.4c-.97,2.17-1.96,4.39-2.69,6.18-.78-2.01-1.63-3.87-2.64-6.18L19.13.31h-3.21l8.12,17.25h.09L32.23.31h-3.21l-2.27,5.1Z"/>
          <path class="cls-1" d="M45.32,0c-5.03,0-8.8,3.92-8.8,8.8s3.78,8.8,8.8,8.8,8.8-3.85,8.8-8.8S50.3,0,45.32,0ZM45.32,14.86c-3.37,0-5.83-2.62-5.83-6.06s2.45-6.06,5.83-6.06,5.8,2.64,5.8,6.06-2.43,6.06-5.8,6.06Z"/>
          <polygon class="cls-1" points="64.22 .31 61.25 .31 61.25 17.3 71.13 17.3 71.13 14.79 64.22 14.79 64.22 .31"/>
          <path class="cls-1" d="M84.09,5.4c-.97,2.17-1.96,4.39-2.69,6.18-.78-2.01-1.63-3.87-2.64-6.18l-2.29-5.1h-3.21l8.12,17.25h.09L89.56.31h-3.21l-2.27,5.1Z"/>
          <polygon class="cls-1" points="98.6 9.91 105.13 9.91 105.13 7.48 98.6 7.48 98.6 2.81 106.31 2.81 106.31 .31 95.62 .31 95.62 17.3 106.67 17.3 106.67 14.79 98.6 14.79 98.6 9.91"/>
          <polygon class="cls-1" points="3.29 9.88 9.8 9.88 9.8 7.18 3.29 7.18 0 7.18 0 9.88 0 17.26 1.5 17.26 3.29 17.26 11.34 17.26 11.34 14.48 3.29 14.48 3.29 9.88"/>
        </g>
      </g>
    </g>
  </g>
</svg>