<?xml version="1.0" encoding="UTF-8"?>
<svg id="Calque_2" data-name="Calque 2" xmlns="http://www.w3.org/2000/svg" viewBox="0 0 100 115.03">
  <defs>
    <style>
      .cls-1 {
        fill: #1b242d;
        stroke-width: 0px;
      }
    </style>
  </defs>
  <g id="Calque_1-2" data-name="Calque 1">
    <g>
      <path class="cls-1" d="M50,0c-.52,0-1.03.13-1.49.4L1.49,27.66c-.93.54-1.49,1.52-1.49,2.6v54.51c0,1.07.57,2.06,1.49,2.6l47.01,27.25c.46.27.98.4,1.49.4s1.03-.14,1.49-.4l47.02-27.25c.92-.54,1.49-1.53,1.49-2.6V30.26c0-1.07-.57-2.06-1.49-2.6L51.49.4c-.46-.27-.98-.4-1.49-.4M50,108.56L5.97,83.04V31.99L50,6.47l44.03,25.52v51.05l-44.03,25.52Z"/>
      <g>
        <path class="cls-1" d="M49.55,95.91c-6.57-9.94,1.63-19.53,8.26-29.15l2.18-3.52c.24-.39-.09-.87-.62-.87h-17c-.84,0-1.49-.63-1.39-1.34.03-.22.07-.43.11-.65.11-.57.7-.98,1.38-.98h18.99c.3,0,.58-.17.66-.42l.73-1.98c.73-2.4,1.05-4.92.46-7.36-.06-.27-.35-.46-.68-.46h-14.74c-.54,0-.88-.5-.6-.89.41-.59.84-1.19,1.26-1.8.13-.18.35-.29.6-.29h11.39c.57,0,.9-.54.58-.93-1.63-2-4.08-3.57-6.64-4.75-.65-.3-.36-1.15.38-1.11,15.84.74,20.53,13.91,12.91,25.85-6.13,9.61-18.67,17.49-18.23,30.66"/>
        <path class="cls-1" d="M50.45,19.11c6.57,9.94-1.63,19.53-8.26,29.15l-2.18,3.52c-.24.39.09.87.62.87h16.99c.84,0,1.49.63,1.39,1.34-.03.22-.07.43-.11.65-.11.57-.7.99-1.38.99h-18.98c-.3,0-.58.17-.66.41l-.73,1.98c-.73,2.4-1.05,4.92-.46,7.36.06.27.35.46.68.46h14.69c.54,0,.88.5.6.89-.42.59-.84,1.19-1.27,1.8-.13.18-.35.29-.6.29h-11.35c-.57,0-.9.54-.58.93,1.63,2,4.08,3.57,6.64,4.75.65.3.36,1.15-.38,1.11-15.84-.74-20.53-13.91-12.91-25.85,6.13-9.61,18.68-17.49,18.23-30.66"/>
      </g>
    </g>
  </g>
</svg>