<?xml version="1.0" encoding="UTF-8"?>
<svg id="uuid-1e8db7e5-f8d5-4c93-bc06-53b52a76fac2" data-name="Calque 2" xmlns="http://www.w3.org/2000/svg" width="41.46mm" height="46.89mm" viewBox="0 0 117.52 132.91">
  <defs>
    <style>
      .uuid-2c51ec31-6733-4177-b451-61fc02752b9a {
        fill: #fff;
      }

      .uuid-8e2e920a-c559-4dbb-a73b-ff1bd54b8bde {
        fill: #8ecfd0;
      }

      .uuid-92eda8ed-2777-4586-acf9-84a217124ff2 {
        fill: #5fb5b4;
      }
    </style>
  </defs>
  <g id="uuid-9020498c-f1c3-48b7-9c2a-f54abc24ed39" data-name="Calque 1">
    <g>
      <g>
        <path class="uuid-92eda8ed-2777-4586-acf9-84a217124ff2" d="m114.95,31.36L61.34.68c-.8-.45-1.69-.68-2.59-.68v12.58c.55-.02,1.09.1,1.58.37l44.82,25.62c.88.51,1.43,1.44,1.43,2.45v51.24c0,1-.55,1.93-1.43,2.44l-44.82,25.62c-.44.25-.93.38-1.42.38-.04,0-.1-.01-.15-.01v12.23c.9,0,1.79-.23,2.59-.68l.93-.53,52.69-30.14c1.59-.91,2.57-2.59,2.57-4.41v-61.38c0-1.82-.98-3.5-2.57-4.41"/>
        <path class="uuid-8e2e920a-c559-4dbb-a73b-ff1bd54b8bde" d="m58.76,120.68c-.44-.02-.88-.14-1.27-.37l-44.82-25.62c-.88-.5-1.42-1.43-1.42-2.44v-51.24c0-1.01.55-1.94,1.42-2.44L57.48,12.95c.39-.23.83-.35,1.27-.37V0c-.89,0-1.78.23-2.57.68L2.57,31.36c-1.59.91-2.57,2.59-2.57,4.41v61.37c0,1.82.98,3.5,2.57,4.41l52.69,30.14.93.53c.8.45,1.69.68,2.57.68v-12.23Z"/>
        <g>
          <path class="uuid-8e2e920a-c559-4dbb-a73b-ff1bd54b8bde" d="m16.75,42.64v47.98l42.12,23.91V18.73l-42.12,23.9Z"/>
          <path class="uuid-92eda8ed-2777-4586-acf9-84a217124ff2" d="m58.88,18.73v95.79l42.12-23.9v-47.98l-42.12-23.91Z"/>
        </g>
      </g>
      <path class="uuid-2c51ec31-6733-4177-b451-61fc02752b9a" d="m33.81,69.42c-.39-.39-.58-.98-.58-1.37s.19-.99.58-1.38l2.75-2.74c.79-.79,1.97-.79,2.75,0l.19.19,10.81,11.6c.39.39.98.39,1.37,0l26.32-27.31h.2c.79-.79,1.97-.79,2.75,0l2.75,2.75c.79.78.79,1.96,0,2.74l-31.43,32.62c-.39.39-.79.58-1.38.58s-.98-.19-1.37-.58l-15.33-16.5-.39-.59Z"/>
    </g>
  </g>
</svg>